<svg xmlns:mydata="http://www.w3.org/2000/svg" mydata:contrastcolor="101820" mydata:template="Contrast" mydata:presentation="2.5" mydata:layouttype="undefined" mydata:specialfontid="undefined" mydata:id1="154" mydata:id2="233" mydata:companyname="Facul Eventos" mydata:companytagline="" version="1.1" xmlns="http://www.w3.org/2000/svg" xmlns:xlink="http://www.w3.org/1999/xlink" viewBox="0 0 550 470"><g fill="none" fill-rule="none" stroke="none" stroke-width="1" stroke-linecap="butt" stroke-linejoin="miter" stroke-miterlimit="10" stroke-dasharray="" stroke-dashoffset="0" font-family="none" font-weight="none" font-size="none" text-anchor="none" style="mix-blend-mode: normal"><g data-paper-data="{&quot;isGlobalGroup&quot;:true,&quot;bounds&quot;:{&quot;x&quot;:156.88249976687786,&quot;y&quot;:106,&quot;width&quot;:236.23500046624423,&quot;height&quot;:258}}"><g data-paper-data="{&quot;stacked&quot;:true,&quot;isPrimaryText&quot;:true}" fill-rule="nonzero"><path d="M238.28913,275.89281c0,0.61905 0,1.56238 0,2.82997c-2.18143,0 -5.45358,0 -9.81644,0c0,-0.61905 0,-1.56238 0,-2.82997c2.18143,0 5.45358,0 9.81644,0zM220.91137,277.61732c0,0.70749 0,1.50342 0,2.38778c0,2.68257 0,6.14633 0,10.39128c0.76645,0 1.91612,0 3.44902,0c0,-2.77101 0,-6.94226 0,-12.51375c0,-4.0386 0.78119,-6.69169 2.34356,-7.95928c1.59186,-1.26759 3.72907,-1.90138 6.41164,-1.90138c0.61905,0 1.16441,0 1.63607,0c0.47166,0 0.86962,0 1.19389,0c1.35603,0 2.04878,0 2.07826,0c0.02948,0 0.47166,0 1.32655,0c0,-0.64853 0,-1.63607 0,-2.96262c-1.3855,0 -3.46376,0 -6.23477,0c-3.68485,0 -6.63273,0.86962 -8.84364,2.60887c-2.21091,1.76873 -3.3311,5.08509 -3.36058,9.9491z" data-paper-data="{&quot;glyphName&quot;:&quot;F&quot;,&quot;glyphIndex&quot;:0,&quot;firstGlyphOfWord&quot;:true,&quot;word&quot;:1,&quot;line&quot;:1,&quot;firstGlyphOfFirstLine&quot;:true}" fill="#ff9000" id="path-id-71916" data-original-fill="#ff9000"></path><path d="M253.89815,265.8995c-0.05896,-0.11792 -0.23583,-0.29479 -0.53062,-0.53062c-0.26531,-0.26531 -0.78119,-0.39796 -1.54764,-0.39796c-0.73697,0 -1.25285,0.11792 -1.54764,0.35375c-0.29479,0.23583 -0.47166,0.4127 -0.53062,0.53062c-2.18143,5.45358 -5.46832,13.63395 -9.86066,24.5411c0.79593,0 1.97508,0 3.53746,0c0.61905,-1.56238 1.54764,-3.87646 2.78575,-6.94226c0.23583,-0.61905 0.60432,-1.54764 1.10546,-2.78575c0.53062,-1.3855 1.34129,-3.44902 2.432,-6.19055c0.05896,-0.14739 0.11792,-0.29479 0.17687,-0.44218c0.05896,-0.14739 0.11792,-0.28005 0.17687,-0.39796c0.17687,-0.44218 0.38322,-0.81067 0.61905,-1.10546c0.26531,-0.26531 0.60432,-0.39796 1.01702,-0.39796c0.4127,0 0.73697,0.13265 0.9728,0.39796c0.20635,0.23583 0.39796,0.54536 0.57484,0.92858c0.05896,0.17687 0.11792,0.35375 0.17687,0.53062c0.05896,0.14739 0.11792,0.30953 0.17687,0.4864c0.23583,0.61905 0.44218,1.16441 0.61905,1.63607c0.17687,0.44218 0.32427,0.82541 0.44218,1.14967c0.53062,1.35603 0.79593,2.04878 0.79593,2.07826c0.02948,0.05896 0.19161,0.50114 0.4864,1.32655c0.23583,0.61905 0.58958,1.54764 1.06124,2.78575c0.58958,1.5329 1.47394,3.84698 2.65309,6.94226c0.82541,0 2.04878,0 3.67011,0c-2.06352,-5.36514 -5.17353,-13.4276 -9.33004,-24.18736c-0.02948,-0.02948 -0.05896,-0.0737 -0.08844,-0.13265c0,-0.05896 -0.01474,-0.11792 -0.04422,-0.17687z" data-paper-data="{&quot;glyphName&quot;:&quot;A&quot;,&quot;glyphIndex&quot;:1,&quot;word&quot;:1,&quot;line&quot;:1}" fill="#ff9000" id="path-id-17255" data-original-fill="#ff9000"></path><path d="M276.93584,268.02197c0.70749,0 1.31181,0 1.81295,0c0.50114,0 0.94332,0 1.32655,0c1.50342,0 2.26987,0 2.29935,0c0.05896,0 0.54536,0 1.4592,0c0,-0.64853 0,-1.65081 0,-3.00684c-1.5329,0 -3.83224,0 -6.89804,0c-1.17915,0.02948 -2.31409,0.13265 -3.4048,0.30953c-1.06124,0.17687 -2.06352,0.4864 -3.00684,0.92858c-1.73925,0.82541 -3.13949,2.15195 -4.20073,3.97964c-1.06124,1.82769 -1.59186,4.34812 -1.59186,7.56131c0,1.70977 0.16213,3.22793 0.4864,4.55448c0.29479,1.29707 0.73697,2.41726 1.32655,3.36058c1.06124,1.73925 2.5057,2.94788 4.33338,3.62589c1.82769,0.67801 3.81751,1.01702 5.96946,1.01702c0,0.02948 0,0.04422 0,0.04422c1.56238,0 3.8912,0 6.98648,0c0,-0.67801 0,-1.69503 0,-3.05106c-1.5329,0 -3.83224,0 -6.89804,0c-1.70977,0 -3.19845,-0.22109 -4.46604,-0.66327c-1.29707,-0.44218 -2.29935,-1.31181 -3.00684,-2.60887c-0.38322,-0.70749 -0.66327,-1.57712 -0.84015,-2.60887c-0.20635,-1.00228 -0.30953,-2.19617 -0.30953,-3.58167c0,-4.0386 0.76645,-6.69169 2.29935,-7.95928c1.5329,-1.26759 3.64063,-1.90138 6.3232,-1.90138z" data-paper-data="{&quot;glyphName&quot;:&quot;C&quot;,&quot;glyphIndex&quot;:2,&quot;word&quot;:1,&quot;line&quot;:1}" fill="#ff9000" id="path-id-84101" data-original-fill="#ff9000"></path><path d="M288.03461,265.01513c0.76645,0 1.90138,0 3.4048,0c0,3.36058 0,8.40146 0,15.12263c0,2.77101 0.47166,4.68713 1.41498,5.74837c0.9728,1.06124 2.80049,1.59186 5.48306,1.59186c2.68257,0 4.49552,-0.53062 5.43884,-1.59186c0.94332,-1.06124 1.41498,-2.97736 1.41498,-5.74837c0,-1.50342 0,-2.82997 0,-3.97964c0,-1.12019 0,-2.093 0,-2.9184c0,-0.64853 0,-1.22337 0,-1.72451c0,-0.47166 0,-0.8991 0,-1.28233c0,-1.44446 0,-2.26987 0,-2.47622c0,-0.20635 0,-1.12019 0,-2.74153c0.76645,0 1.90138,0 3.4048,0c0,3.44902 0,8.62255 0,15.52059c0,3.18371 -0.79593,5.61571 -2.38778,7.296c-1.62133,1.70977 -4.24495,2.56466 -7.87084,2.56466c-3.65537,0 -6.27899,-0.85489 -7.87084,-2.56466c-1.62133,-1.68029 -2.432,-4.11229 -2.432,-7.296c0,-1.56238 0,-2.9184 0,-4.06808c0,-0.5601 0,-1.09072 0,-1.59186c0,-0.50114 0,-0.9728 0,-1.41498c0,-0.67801 0,-1.26759 0,-1.76873c0,-0.50114 0,-0.94332 0,-1.32655c0,-1.47394 0,-2.31409 0,-2.52044c0,-0.20635 0,-1.14967 0,-2.82997z" data-paper-data="{&quot;glyphName&quot;:&quot;U&quot;,&quot;glyphIndex&quot;:3,&quot;word&quot;:1,&quot;line&quot;:1}" fill="#ff9000" id="path-id-81371" data-original-fill="#ff9000"></path><path d="M317.26284,265.01513c-0.76645,0 -1.91612,0 -3.44902,0c0,2.59413 0,6.48534 0,11.67361c0,1.29707 0,2.9184 0,4.864c0,1.91612 0,4.17125 0,6.76539c0,0.08844 0,0.23583 0,0.44218c0,0 0,0.02948 0,0.08844c0,0.4127 0.14739,0.76645 0.44218,1.06124c0.29479,0.29479 0.64853,0.44218 1.06124,0.44218c0.14739,0 0.22109,0 0.22109,0c0,0 0.02948,0 0.08844,0c0.02948,0 0.0737,0 0.13265,0c2.68257,0 6.72117,0 12.11579,0c0.26531,-0.67801 0.66327,-1.68029 1.19389,-3.00684c-2.26987,0 -5.70415,0 -10.30284,0c-0.4127,0 -0.76645,-0.14739 -1.06124,-0.44218c-0.29479,-0.29479 -0.44218,-0.64853 -0.44218,-1.06124c0,-2.06352 0,-3.87646 0,-5.43884c0,-1.56238 0,-2.90366 0,-4.02386c0,-0.91384 0,-1.70977 0,-2.38778c0,-0.67801 0,-1.26759 0,-1.76873c0,-1.59186 0,-2.5794 0,-2.96262c0,-0.38322 0,-1.10546 0,-2.16669c0,-0.23583 0,-0.53062 0,-0.88436c0,-0.32427 0,-0.72223 0,-1.19389z" data-paper-data="{&quot;glyphName&quot;:&quot;L&quot;,&quot;glyphIndex&quot;:4,&quot;lastGlyphOfWord&quot;:true,&quot;word&quot;:1,&quot;line&quot;:1,&quot;lastGlyphOfFirstLine&quot;:true}" fill="#ff9000" id="path-id-149" data-original-fill="#ff9000"></path><path d="M231.95242,302.1953c0,0.38936 0,0.98266 0,1.77992c-1.35348,0 -3.37442,0 -6.06284,0c0,-0.38936 0,-0.98266 0,-1.77992c1.33494,0 3.35588,0 6.06284,0zM228.61507,297.2171c0.4079,0 0.76944,0 1.08464,0c0.29665,0 0.55622,0 0.77871,0c0.9085,0 1.37202,0 1.39056,0c0.01854,0 0.29665,0 0.83434,0c0,-0.4079 0,-1.03828 0,-1.89116c-0.9085,0 -2.27125,0 -4.08825,0c-0.74163,0 -1.45545,0.06489 -2.14146,0.19468c-0.68601,0.11124 -1.3164,0.30592 -1.89116,0.58404c-1.09391,0.51914 -1.97459,1.35348 -2.64206,2.50301c-0.68601,1.14953 -1.02901,2.73477 -1.02901,4.75571c0,1.07537 0.10197,2.03022 0.30592,2.86455c0.20395,0.8158 0.49133,1.52035 0.86215,2.11365c0.66747,1.09391 1.57597,1.85408 2.7255,2.28052c1.13099,0.42644 2.38249,0.63966 3.75451,0.63966c0,0.01854 0,0.02781 0,0.02781c0.96412,0 2.4103,0 4.33855,0c0,-0.42644 0,-1.0661 0,-1.91897c-0.94558,0 -2.37322,0 -4.28292,0c-1.07537,0 -2.01168,-0.13906 -2.80893,-0.41717c-0.8158,-0.27811 -1.44618,-0.82507 -1.89116,-1.64086c-0.24103,-0.44498 -0.42644,-0.99193 -0.55622,-1.64086c-0.11124,-0.63039 -0.16687,-1.38129 -0.16687,-2.25271c0,-2.54009 0.48206,-4.20876 1.44618,-5.00601c0.96412,-0.79725 2.28979,-1.19588 3.977,-1.19588z" data-paper-data="{&quot;glyphName&quot;:&quot;E&quot;,&quot;glyphIndex&quot;:5,&quot;firstGlyphOfWord&quot;:true,&quot;word&quot;:2,&quot;line&quot;:2,&quot;firstGlyphOfSecondLine&quot;:true}" fill="#79863c" id="path-id-76074" data-original-fill="#79863c"></path><path d="M244.27278,310.70553c-0.03708,0.05562 -0.14833,0.16687 -0.33373,0.33373c-0.18541,0.14833 -0.50987,0.22249 -0.97339,0.22249c-0.46352,0 -0.78798,-0.07416 -0.97339,-0.22249c-0.18541,-0.14833 -0.29665,-0.25957 -0.33373,-0.33373c-1.37202,-3.41151 -3.43005,-8.53804 -6.17409,-15.37959c0.5006,0 1.24223,0 2.2249,0c0.38936,0.96412 0.96412,2.4103 1.72429,4.33855c0.16687,0.38936 0.39863,0.98266 0.69528,1.77992c0.35228,0.85288 0.86215,2.14146 1.52962,3.86576c0.03708,0.0927 0.07416,0.18541 0.11124,0.27811c0.03708,0.0927 0.07416,0.18541 0.11124,0.27811c0.11124,0.25957 0.24103,0.47279 0.38936,0.63966c0.16687,0.16687 0.38009,0.2503 0.63966,0.2503c0.25957,0 0.46352,-0.07416 0.61185,-0.22249c0.12979,-0.14833 0.2503,-0.343 0.36155,-0.58404c0.03708,-0.11124 0.07416,-0.22249 0.11124,-0.33373c0.03708,-0.0927 0.07416,-0.19468 0.11124,-0.30592c0.14833,-0.38936 0.27811,-0.72309 0.38936,-1.0012c0.11124,-0.29665 0.20395,-0.54695 0.27811,-0.7509c0.31519,-0.85288 0.48206,-1.28859 0.5006,-1.30713c0,-0.01854 0.10197,-0.28738 0.30592,-0.80652c0.14833,-0.38936 0.37082,-0.98266 0.66747,-1.77992c0.37082,-0.96412 0.92704,-2.4103 1.66867,-4.33855c0.5006,0 1.26077,0 2.28052,0c-1.29786,3.37442 -3.24464,8.42679 -5.84035,15.1571c-0.01854,0.01854 -0.03708,0.05562 -0.05562,0.11124c0,0.01854 -0.00927,0.05562 -0.02781,0.11124z" data-paper-data="{&quot;glyphName&quot;:&quot;V&quot;,&quot;glyphIndex&quot;:6,&quot;word&quot;:2,&quot;line&quot;:2}" fill="#79863c" id="path-id-6431" data-original-fill="#79863c"></path><path d="M263.87967,302.1953c0,0.38936 0,0.98266 0,1.77992c-1.35348,0 -3.37442,0 -6.06284,0c0,-0.38936 0,-0.98266 0,-1.77992c1.33494,0 3.35588,0 6.06284,0zM260.54232,297.2171c0.4079,0 0.76944,0 1.08464,0c0.29665,0 0.55622,0 0.77871,0c0.9085,0 1.37202,0 1.39056,0c0.01854,0 0.29665,0 0.83434,0c0,-0.4079 0,-1.03828 0,-1.89116c-0.9085,0 -2.27125,0 -4.08825,0c-0.74163,0 -1.45545,0.06489 -2.14146,0.19468c-0.68601,0.11124 -1.3164,0.30592 -1.89116,0.58404c-1.09391,0.51914 -1.97459,1.35348 -2.64206,2.50301c-0.68601,1.14953 -1.02901,2.73477 -1.02901,4.75571c0,1.07537 0.10197,2.03022 0.30592,2.86455c0.20395,0.8158 0.49133,1.52035 0.86215,2.11365c0.66747,1.09391 1.57597,1.85408 2.7255,2.28052c1.13099,0.42644 2.38249,0.63966 3.75451,0.63966c0,0.01854 0,0.02781 0,0.02781c0.96412,0 2.4103,0 4.33855,0c0,-0.42644 0,-1.0661 0,-1.91897c-0.94558,0 -2.37322,0 -4.28292,0c-1.07537,0 -2.01168,-0.13906 -2.80893,-0.41717c-0.8158,-0.27811 -1.44618,-0.82507 -1.89116,-1.64086c-0.24103,-0.44498 -0.42644,-0.99193 -0.55622,-1.64086c-0.11124,-0.63039 -0.16687,-1.38129 -0.16687,-2.25271c0,-2.54009 0.48206,-4.20876 1.44618,-5.00601c0.96412,-0.79725 2.28979,-1.19588 3.977,-1.19588z" data-paper-data="{&quot;glyphName&quot;:&quot;E&quot;,&quot;glyphIndex&quot;:7,&quot;word&quot;:2,&quot;line&quot;:2}" fill="#79863c" id="path-id-23423" data-original-fill="#79863c"></path><path d="M281.03917,295.32593c-0.44498,0 -1.12172,0 -2.03022,0c0,0 -0.00927,0 -0.02781,0c0,2.16927 0,5.41391 0,9.73392c-0.01854,0.22249 -0.11124,0.41717 -0.27811,0.58404c-0.16687,0.16687 -0.37082,0.2503 -0.61185,0.2503c-0.16687,0 -0.31519,-0.03708 -0.44498,-0.11124c-0.14833,-0.0927 -0.25957,-0.19468 -0.33373,-0.30592c-0.59331,-0.94558 -1.10318,-1.77065 -1.52962,-2.4752c-0.44498,-0.68601 -0.82507,-1.28859 -1.14026,-1.80773c-0.25957,-0.4079 -0.48206,-0.76017 -0.66747,-1.05683c-0.18541,-0.31519 -0.35228,-0.58404 -0.5006,-0.80652c-0.55622,-0.88996 -0.87142,-1.39983 -0.94558,-1.52962c-0.0927,-0.12979 -0.44498,-0.69528 -1.05683,-1.69648c0,0 0,-0.00927 0,-0.02781c-0.14833,-0.22249 -0.343,-0.39863 -0.58404,-0.52841c-0.24103,-0.14833 -0.5006,-0.22249 -0.77871,-0.22249c-0.44498,0 -0.82507,0.1576 -1.14026,0.47279c-0.29665,0.31519 -0.45425,0.68601 -0.47279,1.11245c0,0.01854 0,0.02781 0,0.02781c0,0.01854 0,0.02781 0,0.02781c0,0.35228 0,0.70455 0,1.05683c0,1.0012 0,1.90043 0,2.69769c0,1.07537 0,2.00241 0,2.78112c0,0.61185 0,1.1588 0,1.64086c0,0.46352 0,0.86215 0,1.19588c0,1.09391 0,1.77065 0,2.03022c0,0.27811 0,0.77871 0,1.5018c0,0.16687 0,0.37082 0,0.61185c0,0.22249 0,0.49133 0,0.80652c0.46352,0 1.14953,0 2.05803,0c0,-2.16927 0,-5.42318 0,-9.76173c0,-0.24103 0.0927,-0.45425 0.27811,-0.63966c0.16687,-0.18541 0.38009,-0.27811 0.63966,-0.27811c0.16687,0 0.31519,0.04635 0.44498,0.13906c0.12979,0.07416 0.24103,0.17614 0.33373,0.30592c1.0012,1.61305 2.51228,4.03262 4.53322,7.25872c0.29665,0.48206 0.73236,1.21442 1.30713,2.19708c0,0 0,0.00927 0,0.02781c0.14833,0.22249 0.33373,0.39863 0.55622,0.52841c0.24103,0.14833 0.50987,0.22249 0.80652,0.22249c0.44498,0 0.8158,-0.1576 1.11245,-0.47279c0.31519,-0.31519 0.47279,-0.68601 0.47279,-1.11245c0,0 0,-0.00927 0,-0.02781c0,0 0,-0.00927 0,-0.02781c0,-0.03708 0,-0.05562 0,-0.05562c0,0 0,-0.00927 0,-0.02781c0,-0.01854 0,-0.02781 0,-0.02781c0,-1.4091 0,-2.64206 0,-3.69889c0,-1.07537 0,-2.00241 0,-2.78112c0,-0.61185 0,-1.14953 0,-1.61305c0,-0.46352 0,-0.86215 0,-1.19588c0,-1.09391 0,-1.77065 0,-2.03022c0,-0.25957 0,-0.7509 0,-1.47399c0,-0.18541 0,-0.38936 0,-0.61185c0,-0.22249 0,-0.49133 0,-0.80652z" data-paper-data="{&quot;glyphName&quot;:&quot;N&quot;,&quot;glyphIndex&quot;:8,&quot;word&quot;:2,&quot;line&quot;:2}" fill="#79863c" id="path-id-68320" data-original-fill="#79863c"></path><path d="M284.40433,295.32593c0.16687,0.42644 0.42644,1.05683 0.77871,1.89116c0.79725,0 1.99314,0 3.58764,0c0.25957,0.01854 0.47279,0.11124 0.63966,0.27811c0.18541,0.18541 0.27811,0.39863 0.27811,0.63966c0,1.3164 0,2.46593 0,3.44859c0,0.98266 0,1.83554 0,2.55863c0,0.57476 0,1.07537 0,1.5018c0,0.42644 0,0.79725 0,1.11245c0,1.0012 0,1.62232 0,1.86335c0,0.24103 0,0.69528 0,1.36275c0,0.14833 0,0.33373 0,0.55622c0,0.20395 0,0.44498 0,0.72309c0.48206,0 1.20515,0 2.16927,0c0,-2.9109 0,-7.2958 0,-13.15469c0,-0.24103 0.0927,-0.44498 0.27811,-0.61185c0.16687,-0.16687 0.37082,-0.25957 0.61185,-0.27811c0.37082,0 0.68601,0 0.94558,0c0.27811,0 0.50987,0 0.69528,0c0.79725,0 1.20515,0 1.22369,0c0.01854,0 0.26884,0 0.7509,0c0.16687,-0.4079 0.41717,-1.03828 0.7509,-1.89116c-2.8182,0 -7.05477,0 -12.70972,0z" data-paper-data="{&quot;glyphName&quot;:&quot;T&quot;,&quot;glyphIndex&quot;:9,&quot;word&quot;:2,&quot;line&quot;:2}" fill="#79863c" id="path-id-37098" data-original-fill="#79863c"></path><path d="M299.22769,303.36337c0,1.05683 0.10197,1.99314 0.30592,2.80893c0.18541,0.8158 0.46352,1.52035 0.83434,2.11365c0.64893,1.09391 1.52962,1.86335 2.64206,2.30833c1.13099,0.44498 2.36395,0.66747 3.69889,0.66747c0.72309,0 1.4091,-0.05562 2.05803,-0.16687c0.66747,-0.12979 1.28859,-0.33373 1.86335,-0.61185c1.05683,-0.5006 1.9097,-1.3164 2.55863,-2.44739c0.64893,-1.14953 0.97339,-2.70696 0.97339,-4.67228c0,-1.98387 -0.32446,-3.55056 -0.97339,-4.70009c-0.63039,-1.14953 -1.47399,-1.98387 -2.53082,-2.50301c-0.57476,-0.29665 -1.19588,-0.50987 -1.86335,-0.63966c-0.66747,-0.12979 -1.35348,-0.19468 -2.05803,-0.19468c-0.72309,0 -1.41837,0.06489 -2.08584,0.19468c-0.66747,0.12979 -1.28859,0.343 -1.86335,0.63966c-1.05683,0.51914 -1.91897,1.35348 -2.58644,2.50301c-0.64893,1.16807 -0.97339,2.73477 -0.97339,4.70009zM301.42478,303.41899c0,-2.48447 0.46352,-4.14387 1.39056,-4.9782c0.94558,-0.83434 2.24344,-1.2515 3.89357,-1.2515c1.65013,0 2.93872,0.41717 3.86576,1.2515c0.92704,0.83434 1.39056,2.49374 1.39056,4.9782c0,2.42884 -0.47279,4.04189 -1.41837,4.83915c-0.96412,0.8158 -2.23417,1.22369 -3.81013,1.22369c-1.61305,0 -2.90163,-0.4079 -3.86576,-1.22369c-0.96412,-0.79725 -1.44618,-2.4103 -1.44618,-4.83915zM306.70891,304.50363c-0.29665,0 -0.55622,-0.11124 -0.77871,-0.33373c-0.20395,-0.20395 -0.30592,-0.45425 -0.30592,-0.7509c0,-0.29665 0.10197,-0.54695 0.30592,-0.7509c0.22249,-0.22249 0.48206,-0.33373 0.77871,-0.33373c0.29665,0 0.54695,0.11124 0.7509,0.33373c0.20395,0.20395 0.30592,0.45425 0.30592,0.7509c0,0.29665 -0.10197,0.54695 -0.30592,0.7509c-0.20395,0.22249 -0.45425,0.33373 -0.7509,0.33373z" data-paper-data="{&quot;glyphName&quot;:&quot;O&quot;,&quot;glyphIndex&quot;:10,&quot;word&quot;:2,&quot;line&quot;:2}" fill="#79863c" id="path-id-23926" data-original-fill="#79863c"></path><path d="M321.05948,302.22311c-0.79725,0 -1.43691,-0.16687 -1.91897,-0.5006c-0.48206,-0.31519 -0.72309,-0.95485 -0.72309,-1.91897c0,-1.03828 0.26884,-1.73356 0.80652,-2.08584c0.53768,-0.33373 1.21442,-0.5006 2.03022,-0.5006c0.68601,0 1.28859,0 1.80773,0c0.5006,0 0.94558,0 1.33494,0c0.29665,0 0.55622,0 0.77871,0c0.22249,0 0.41717,0 0.58404,0c0.64893,0 1.02901,0 1.14026,0c0.0927,0 0.5006,0 1.22369,0c0,-0.42644 0,-1.05683 0,-1.89116c-1.48326,0 -3.69889,0 -6.64688,0c-1.55743,0 -2.8182,0.36155 -3.78232,1.08464c-0.96412,0.72309 -1.44618,1.86335 -1.44618,3.42078c0,1.48326 0.43571,2.5679 1.30713,3.25391c0.87142,0.70455 2.03949,1.05683 3.50421,1.05683c0.31519,0 0.59331,0 0.83434,0c0.24103,0 0.44498,0 0.61185,0c0.70455,0 1.0661,0 1.08464,0c0.01854,0 0.24103,0 0.66747,0c0.77871,0 1.4091,0.16687 1.89116,0.5006c0.5006,0.35228 0.7509,1.03828 0.7509,2.05803c0,1.0012 -0.28738,1.68721 -0.86215,2.05803c-0.57476,0.37082 -1.24223,0.55622 -2.00241,0.55622c-0.74163,0 -1.39056,0 -1.94678,0c-0.55622,0 -1.03828,0 -1.44618,0c-0.31519,0 -0.59331,0 -0.83434,0c-0.24103,0 -0.45425,0 -0.63966,0c-0.72309,0 -1.13099,0 -1.22369,0c-0.11124,0 -0.56549,0 -1.36275,0c0,0.42644 0,1.05683 0,1.89116c1.65013,0 4.10679,0 7.36997,0c1.52035,0 2.75331,-0.37082 3.69889,-1.11245c0.94558,-0.76017 1.41837,-1.90043 1.41837,-3.42078c0,-1.52035 -0.42644,-2.64206 -1.27931,-3.36515c-0.87142,-0.72309 -2.05803,-1.08464 -3.55983,-1.08464c-0.31519,0 -0.59331,0 -0.83434,0c-0.24103,0 -0.44498,0 -0.61185,0c-0.70455,0 -1.05683,0 -1.05683,0c-0.01854,0 -0.24103,0 -0.66747,0z" data-paper-data="{&quot;glyphName&quot;:&quot;S&quot;,&quot;glyphIndex&quot;:11,&quot;lastGlyphOfWord&quot;:true,&quot;word&quot;:2,&quot;line&quot;:2,&quot;lastGlyphOfSecondLine&quot;:true}" fill="#79863c" id="path-id-38179" data-original-fill="#79863c"></path></g><g data-paper-data="{&quot;fillRule&quot;:&quot;evenodd&quot;,&quot;isIcon&quot;:&quot;true&quot;,&quot;iconStyle&quot;:&quot;standalone&quot;,&quot;selectedEffects&quot;:{&quot;container&quot;:&quot;&quot;,&quot;transformation&quot;:&quot;&quot;,&quot;pattern&quot;:&quot;&quot;},&quot;bounds&quot;:{&quot;x&quot;:220.91137218995397,&quot;y&quot;:143.5509084840367,&quot;width&quot;:108.1577336079742,&quot;height&quot;:111.17492844865876},&quot;iconType&quot;:&quot;initial&quot;,&quot;initialText&quot;:&quot;F&quot;,&quot;rawInitialId&quot;:&quot;43&quot;,&quot;disableIconEffects&quot;:&quot;true&quot;,&quot;monogramSpecial&quot;:&quot;seven-nation-army&quot;,&quot;suitableAsStandaloneIcon&quot;:true}" fill-rule="evenodd"><g data-paper-data="{&quot;isPathIcon&quot;:true}"><path d="M282.46718,233.12462c0,0.35365 -0.00839,0.7066 -0.02586,1.05955c-0.01747,0.35365 -0.04333,0.7059 -0.07828,1.05815c-0.03425,0.35155 -0.07758,0.70171 -0.1293,1.05186c-0.05242,0.34946 -0.11252,0.69751 -0.18172,1.04417c-0.06849,0.34736 -0.14607,0.69192 -0.23204,1.03509c-0.08597,0.34247 -0.18032,0.68284 -0.28306,1.02181c-0.10204,0.33827 -0.21317,0.67375 -0.33198,1.00643c-0.11951,0.33268 -0.24672,0.66257 -0.3816,0.98896c-0.13559,0.32709 -0.27887,0.64999 -0.42983,0.96939c-0.15096,0.3194 -0.31032,0.63531 -0.47666,0.94702c-0.16704,0.31171 -0.34107,0.61923 -0.52278,0.92256c-0.18172,0.30333 -0.37042,0.60176 -0.56682,0.8953c-0.19639,0.29424 -0.40048,0.58359 -0.61085,0.86735c-0.21037,0.28376 -0.42773,0.56262 -0.65208,0.8359c-0.22435,0.27327 -0.45569,0.54096 -0.69262,0.80305c-0.23763,0.26139 -0.48085,0.51789 -0.73106,0.7674c-0.25021,0.25021 -0.50624,0.4939 -0.7681,0.73106c-0.26209,0.23763 -0.52977,0.46827 -0.80305,0.69262c-0.27327,0.22435 -0.55144,0.44171 -0.8352,0.65208c-0.28446,0.21107 -0.57311,0.41445 -0.86735,0.61085c-0.29354,0.19639 -0.59268,0.3858 -0.896,0.56751c-0.30263,0.18172 -0.61015,0.35575 -0.92186,0.52209c-0.31171,0.16704 -0.62762,0.32569 -0.94702,0.47666c-0.3201,0.15166 -0.643,0.29424 -0.96939,0.42983c-0.32639,0.13559 -0.65628,0.26279 -0.98966,0.3816c-0.33268,0.11951 -0.66816,0.22994 -1.00643,0.33268c-0.33827,0.10274 -0.67864,0.19709 -1.02181,0.28306c-0.34247,0.08527 -0.68773,0.16285 -1.03439,0.23204c-0.34666,0.06919 -0.69542,0.1293 -1.04487,0.18102c-0.34946,0.05242 -0.70031,0.09505 -1.05186,0.13c-0.35225,0.03495 -0.7045,0.06081 -1.05745,0.07828c-0.35295,0.01677 -0.7066,0.02586 -1.06025,0.02586h-18.35338c-0.35365,0 -0.7066,-0.00909 -1.06025,-0.02586c-0.35295,-0.01747 -0.7052,-0.04333 -1.05675,-0.07828c-0.35225,-0.03495 -0.7031,-0.07758 -1.05256,-0.13c-0.34946,-0.05172 -0.69751,-0.11183 -1.04417,-0.18102c-0.34736,-0.06919 -0.69192,-0.14677 -1.03509,-0.23274c-0.34247,-0.08527 -0.68353,-0.17962 -1.02181,-0.28236c-0.33827,-0.10274 -0.67305,-0.21317 -1.00643,-0.33268c-0.33268,-0.11881 -0.66257,-0.24602 -0.98896,-0.3816c-0.32709,-0.13489 -0.64999,-0.27817 -0.96939,-0.42913c-0.3194,-0.15166 -0.63531,-0.31032 -0.94702,-0.47666c-0.31241,-0.16704 -0.61993,-0.34177 -0.92326,-0.52348c-0.30263,-0.18172 -0.60106,-0.37042 -0.8953,-0.56682c-0.29354,-0.19639 -0.58289,-0.39978 -0.86665,-0.61015c-0.28376,-0.21107 -0.56262,-0.42843 -0.8359,-0.65278c-0.27327,-0.22435 -0.54096,-0.45499 -0.80305,-0.69262c-0.26209,-0.23693 -0.51789,-0.48085 -0.7674,-0.73036c-0.25021,-0.25021 -0.49413,-0.50671 -0.73106,-0.7681c-0.23763,-0.26209 -0.46827,-0.52977 -0.69262,-0.80305c-0.22435,-0.27327 -0.44171,-0.55144 -0.65278,-0.8359c-0.21037,-0.28376 -0.41375,-0.57311 -0.61015,-0.86735c-0.19639,-0.29354 -0.3858,-0.59198 -0.56751,-0.8953c-0.18172,-0.30333 -0.35575,-0.61015 -0.52209,-0.92256c-0.16704,-0.31171 -0.32569,-0.62692 -0.47736,-0.94702c-0.15096,-0.3194 -0.29424,-0.6423 -0.42913,-0.96939c-0.13559,-0.32639 -0.26279,-0.65628 -0.3816,-0.98896c-0.11951,-0.33268 -0.22994,-0.66816 -0.33268,-1.00643c-0.10274,-0.33827 -0.19709,-0.67934 -0.28306,-1.02181c-0.08597,-0.34316 -0.16285,-0.68773 -0.23204,-1.03509c-0.06896,-0.34666 -0.1293,-0.69472 -0.18102,-1.04417c-0.05242,-0.35015 -0.09505,-0.70031 -0.13,-1.05256c-0.03495,-0.35155 -0.06081,-0.7038 -0.07828,-1.05745c-0.01677,-0.35295 -0.02586,-0.7059 -0.02586,-1.05955v-67.9725c0,-0.35365 0.00909,-0.7066 0.02586,-1.05955c0.01747,-0.35365 0.04333,-0.7059 0.07828,-1.05745c0.03495,-0.35155 0.07758,-0.7024 0.13,-1.05256c0.05172,-0.34946 0.11183,-0.69751 0.18102,-1.04417c0.06919,-0.34666 0.14607,-0.69192 0.23204,-1.03439c0.08597,-0.34316 0.18032,-0.68353 0.28306,-1.02251c0.10274,-0.33827 0.21317,-0.67375 0.33268,-1.00643c0.11881,-0.33268 0.24602,-0.66257 0.3816,-0.98896c0.13489,-0.32709 0.27817,-0.64999 0.42913,-0.96939c0.15166,-0.3194 0.31032,-0.63531 0.47666,-0.94702c0.16681,-0.31171 0.34107,-0.61923 0.52278,-0.92256c0.18172,-0.30333 0.37112,-0.60176 0.56751,-0.8953c0.19639,-0.29424 0.39978,-0.58359 0.61015,-0.86735c0.21107,-0.28376 0.42843,-0.56262 0.65278,-0.8359c0.22435,-0.27327 0.45499,-0.54096 0.69262,-0.80305c0.23693,-0.26139 0.48085,-0.51789 0.73106,-0.7681c0.24951,-0.24951 0.50601,-0.49343 0.7674,-0.73036c0.26209,-0.23763 0.52977,-0.46897 0.80305,-0.69262c0.27327,-0.22435 0.55144,-0.44241 0.8359,-0.65278c0.28376,-0.20967 0.57311,-0.41375 0.86735,-0.61015c0.29354,-0.19709 0.59198,-0.3858 0.8946,-0.56751c0.30333,-0.18172 0.61085,-0.35644 0.92256,-0.52278c0.31241,-0.16634 0.62762,-0.32499 0.94702,-0.47596c0.3208,-0.15096 0.6444,-0.29494 0.97079,-0.42983c0.32569,-0.13559 0.65698,-0.26349 0.99245,-0.383c0.32919,-0.11742 0.66327,-0.22784 1.00224,-0.33128c0.33757,-0.10204 0.67794,-0.19639 1.02041,-0.28236c0.34526,-0.08666 0.69122,-0.16354 1.03648,-0.23274c0.34526,-0.06919 0.69402,-0.13 1.04627,-0.18102c0.34946,-0.05172 0.70031,-0.09505 1.05186,-0.1293c0.34946,-0.03495 0.70171,-0.06081 1.05675,-0.07898c0.35295,-0.01747 0.7059,-0.02586 1.05885,-0.02586h64.95461c0.35295,0 0.7059,0.00839 1.05885,0.02586c0.35435,0.01817 0.70869,0.04403 1.06234,0.07898c0.34806,0.03425 0.69681,0.07758 1.04627,0.1293c0.35225,0.05102 0.7031,0.11183 1.05186,0.18242c0.34177,0.06779 0.68353,0.14398 1.0253,0.22924c0.34666,0.08736 0.68843,0.18242 1.0267,0.28446c0.33827,0.10344 0.67375,0.21457 1.00713,0.33338c0.33198,0.11881 0.66257,0.24602 0.99175,0.383c0.3236,0.13419 0.6444,0.27607 0.9645,0.42703c0.3201,0.15096 0.63671,0.31032 0.94842,0.47666c0.31101,0.16634 0.61784,0.34107 0.92046,0.52278c0.30542,0.18242 0.60456,0.37252 0.8995,0.56891c0.29145,0.195 0.5794,0.39768 0.86385,0.60805c0.28446,0.21177 0.56332,0.42913 0.8359,0.65278c0.27327,0.22435 0.54096,0.45499 0.80165,0.69192c0.26279,0.23763 0.51859,0.48155 0.7674,0.73036c0.25301,0.25161 0.49762,0.50881 0.73455,0.7716c0.23763,0.26069 0.46827,0.52838 0.69262,0.80305c0.22295,0.27118 0.43961,0.54864 0.65069,0.8331c0.21037,0.28446 0.41375,0.57311 0.61015,0.86525c0.19639,0.29494 0.3858,0.59337 0.56612,0.8953c0.18311,0.30472 0.35714,0.61225 0.52348,0.92326c0.16774,0.31451 0.32709,0.63112 0.47805,0.94982c0.15096,0.318 0.29354,0.6409 0.42983,0.96939c0.13489,0.32569 0.26139,0.65488 0.38091,0.98686c0.11951,0.33478 0.23064,0.67235 0.33408,1.01342c0.10134,0.33408 0.195,0.67235 0.28096,1.01482c0.08597,0.34386 0.16354,0.68913 0.23344,1.03718c0.06779,0.34666 0.1286,0.69542 0.18032,1.04557c0.05242,0.34736 0.09575,0.69821 0.13,1.05256c0.03495,0.35155 0.06081,0.7038 0.07758,1.05605c0.01817,0.35085 0.02726,0.7038 0.02726,1.05885v14.4947c0,0.96869 -0.065,1.93319 -0.195,2.89349c-0.13,0.9596 -0.3236,1.90593 -0.5801,2.83967c-0.2579,0.93374 -0.5759,1.84582 -0.95471,2.73693c-0.23413,0.54725 -0.48924,1.08331 -0.76601,1.60819c0.04753,0.5801 0.07059,1.16229 0.07059,1.74518v14.4947c0,0.35365 -0.00839,0.7066 -0.02586,1.05885c-0.01677,0.35295 -0.04333,0.7052 -0.07758,1.05675c-0.03495,0.35365 -0.07828,0.7045 -0.13,1.05256c-0.05172,0.35015 -0.11252,0.69891 -0.18102,1.04557c-0.06919,0.34806 -0.14677,0.69332 -0.23274,1.03718c-0.08597,0.34247 -0.18102,0.68284 -0.28306,1.02041c-0.10204,0.33687 -0.21247,0.67095 -0.32989,1.00224c-0.12091,0.33548 -0.24811,0.66606 -0.3837,0.99175c-0.13559,0.32849 -0.27887,0.65208 -0.42913,0.97009c-0.15166,0.3187 -0.30962,0.63391 -0.47596,0.94493c-0.16774,0.31381 -0.34177,0.62133 -0.52278,0.92396c-0.18381,0.30403 -0.37182,0.60246 -0.56682,0.8953c-0.19779,0.29494 -0.40048,0.58289 -0.60875,0.86525c-0.21387,0.28655 -0.43263,0.56682 -0.65698,0.84079c-0.22295,0.27188 -0.45429,0.54026 -0.69332,0.80305c-0.23623,0.26139 -0.48015,0.51719 -0.73176,0.7681c-0.24741,0.24811 -0.50252,0.49063 -0.76391,0.72826c-0.26279,0.23763 -0.53047,0.46827 -0.80235,0.69192c-0.27397,0.22575 -0.55354,0.44311 -0.8366,0.65348c-0.28446,0.21037 -0.57311,0.41445 -0.86735,0.61085c-0.29424,0.19639 -0.59268,0.3851 -0.896,0.56682c-0.30333,0.18172 -0.61085,0.35575 -0.92186,0.52278c-0.31241,0.16634 -0.62832,0.32569 -0.94772,0.47666c-0.3194,0.15096 -0.643,0.29424 -0.96939,0.42983c-0.32639,0.13489 -0.65628,0.26209 -0.98896,0.3816c-0.33268,0.11881 -0.66886,0.22994 -1.00713,0.33268c-0.33827,0.10274 -0.67864,0.19639 -1.02181,0.28236c-0.34247,0.08597 -0.68773,0.16354 -1.03439,0.23274c-0.34666,0.06849 -0.69472,0.1293 -1.04417,0.18102c-0.35015,0.05172 -0.70101,0.09505 -1.05256,0.13c-0.35155,0.03425 -0.7045,0.06011 -1.05745,0.07758c-0.35295,0.01747 -0.7066,0.02586 -1.05955,0.02586h-22.57619zM279.21934,221.07122c-0.10623,0 -0.21247,0.00489 -0.318,0.01538c-0.10554,0.01048 -0.21107,0.02586 -0.31521,0.04683c-0.10414,0.02097 -0.20758,0.04683 -0.30892,0.07758c-0.10204,0.03075 -0.20199,0.0664 -0.30053,0.10693c-0.09855,0.04124 -0.1943,0.08666 -0.28795,0.13629c-0.09365,0.05032 -0.18521,0.10484 -0.27327,0.16424c-0.08876,0.05871 -0.17403,0.12231 -0.2565,0.1901c-0.08177,0.0671 -0.16075,0.13838 -0.23553,0.21387c-0.07548,0.07478 -0.14677,0.15376 -0.21457,0.23623c-0.0671,0.08177 -0.1307,0.16704 -0.1894,0.2558c-0.05941,0.08806 -0.11392,0.17962 -0.16424,0.27327c-0.04962,0.09365 -0.09505,0.1901 -0.13629,0.28795c-0.04054,0.09855 -0.07618,0.19849 -0.10693,0.30053c-0.03075,0.10134 -0.05661,0.20478 -0.07758,0.30892c-0.02097,0.10414 -0.03634,0.20967 -0.04683,0.31521c-0.01048,0.10623 -0.01538,0.21177 -0.01538,0.3187v8.80557c0,0.24741 -0.00629,0.49413 -0.01817,0.74084c-0.01258,0.24672 -0.03075,0.49343 -0.05451,0.73875c-0.02446,0.24672 -0.05451,0.49203 -0.09086,0.73665c-0.03634,0.24462 -0.07898,0.48784 -0.1272,0.73036c-0.04822,0.24252 -0.10204,0.48365 -0.16215,0.72337c-0.06011,0.24043 -0.1258,0.47875 -0.19779,0.71499c-0.07199,0.23623 -0.14957,0.47107 -0.23274,0.7038c-0.08317,0.23274 -0.17193,0.46338 -0.26698,0.69192c-0.09435,0.22854 -0.1943,0.45429 -0.29983,0.67724c-0.10623,0.22365 -0.21736,0.44521 -0.33408,0.66327c-0.11602,0.21736 -0.23833,0.43263 -0.36483,0.6444c-0.1272,0.21247 -0.25999,0.42144 -0.39698,0.62692c-0.13699,0.20548 -0.27956,0.40746 -0.42703,0.60596c-0.14677,0.19849 -0.29913,0.39349 -0.45569,0.58429c-0.15725,0.1908 -0.3187,0.37811 -0.48434,0.56122c-0.16634,0.18311 -0.33687,0.36273 -0.5116,0.53746c-0.17473,0.17473 -0.35365,0.34526 -0.53676,0.5109c-0.18311,0.16634 -0.37042,0.32779 -0.56122,0.48434c-0.1915,0.15725 -0.3865,0.30892 -0.58499,0.45639c-0.19849,0.14677 -0.40048,0.28935 -0.60596,0.42703c-0.20548,0.13699 -0.41375,0.26908 -0.62622,0.39628c-0.21247,0.1272 -0.42773,0.24881 -0.64579,0.36553c-0.21736,0.11672 -0.43822,0.22784 -0.66187,0.33338c-0.22365,0.10554 -0.4494,0.20618 -0.67794,0.30053c-0.22831,0.09459 -0.45872,0.18358 -0.69122,0.26698c-0.23274,0.08317 -0.46757,0.16075 -0.7045,0.23204c-0.23623,0.07199 -0.47456,0.13769 -0.71429,0.19779c-0.23973,0.06011 -0.48085,0.11462 -0.72337,0.16285c-0.24252,0.04822 -0.48574,0.09016 -0.73036,0.1265c-0.24462,0.03634 -0.48994,0.0664 -0.73595,0.09086c-0.24602,0.02446 -0.49273,0.04263 -0.73945,0.05451c-0.24741,0.01188 -0.49413,0.01817 -0.74154,0.01817h-18.35338c-0.24672,0 -0.49413,-0.00629 -0.74084,-0.01817c-0.24741,-0.01188 -0.49343,-0.03005 -0.73945,-0.05451c-0.24602,-0.02446 -0.49133,-0.05451 -0.73595,-0.09086c-0.24462,-0.03634 -0.48854,-0.07828 -0.73036,-0.1265c-0.24252,-0.04822 -0.48365,-0.10274 -0.72337,-0.16215c-0.23973,-0.06081 -0.47805,-0.1265 -0.71499,-0.19849c-0.23693,-0.07129 -0.47176,-0.14887 -0.7045,-0.23204c-0.23204,-0.08317 -0.46268,-0.17263 -0.69122,-0.26698c-0.22854,-0.09435 -0.45429,-0.195 -0.67794,-0.30053c-0.22365,-0.10554 -0.44451,-0.21666 -0.66257,-0.33338c-0.21736,-0.11672 -0.43263,-0.23833 -0.6444,-0.36553c-0.21247,-0.1272 -0.42121,-0.2593 -0.62622,-0.39628c-0.20618,-0.13769 -0.40816,-0.28026 -0.60665,-0.42773c-0.19849,-0.14677 -0.39349,-0.29843 -0.58429,-0.45569c-0.1915,-0.15656 -0.37811,-0.318 -0.56122,-0.48434c-0.18381,-0.16564 -0.36273,-0.33618 -0.53746,-0.5109c-0.17473,-0.17473 -0.34526,-0.35365 -0.5109,-0.53746c-0.16634,-0.18311 -0.32779,-0.36972 -0.48434,-0.56122c-0.15725,-0.1908 -0.30892,-0.3858 -0.45639,-0.58429c-0.14677,-0.19849 -0.28935,-0.40048 -0.42634,-0.60596c-0.13769,-0.20618 -0.26978,-0.41445 -0.39698,-0.62692c-0.1272,-0.21177 -0.24881,-0.42703 -0.36553,-0.64509c-0.11672,-0.21806 -0.22784,-0.43892 -0.33338,-0.66187c-0.10554,-0.22365 -0.20618,-0.4494 -0.30053,-0.67794c-0.09435,-0.22854 -0.18381,-0.45918 -0.26698,-0.69192c-0.08317,-0.23274 -0.16075,-0.46757 -0.23204,-0.7038c-0.07199,-0.23693 -0.13769,-0.47456 -0.19779,-0.71499c-0.06011,-0.23973 -0.11462,-0.48085 -0.16285,-0.72337c-0.04822,-0.24252 -0.09016,-0.48574 -0.1265,-0.73036c-0.03634,-0.24462 -0.0664,-0.48994 -0.09086,-0.73595c-0.02446,-0.24602 -0.04263,-0.49203 -0.05451,-0.73945c-0.01188,-0.24672 -0.01817,-0.49343 -0.01817,-0.74084v-67.9725c0,-0.24741 0.00629,-0.49413 0.01817,-0.74084c0.01188,-0.24741 0.03005,-0.49343 0.05451,-0.73945c0.02446,-0.24602 0.05451,-0.49133 0.09086,-0.73595c0.03634,-0.24462 0.07828,-0.48784 0.1265,-0.73036c0.04822,-0.24252 0.10274,-0.48365 0.16285,-0.72407c0.06011,-0.23973 0.1258,-0.47736 0.19779,-0.71429c0.07129,-0.23623 0.14887,-0.47107 0.23204,-0.7038c0.08317,-0.23274 0.17263,-0.46338 0.26698,-0.69192c0.09435,-0.22784 0.195,-0.45429 0.30053,-0.67794c0.10554,-0.22295 0.21666,-0.44381 0.33338,-0.66257c0.11672,-0.21736 0.23833,-0.43263 0.36553,-0.6444c0.1272,-0.21247 0.2593,-0.42074 0.39698,-0.62692c0.13699,-0.20548 0.27887,-0.40746 0.42634,-0.60596c0.14747,-0.19849 0.29913,-0.39349 0.45639,-0.58429c0.15656,-0.1908 0.318,-0.37811 0.48434,-0.56122c0.16564,-0.18381 0.33618,-0.36273 0.5109,-0.53676c0.17473,-0.17543 0.35365,-0.34596 0.53746,-0.5116c0.18311,-0.16634 0.36972,-0.32779 0.56122,-0.48434c0.19104,-0.15702 0.3858,-0.30915 0.58429,-0.45639c0.19849,-0.14677 0.40048,-0.28935 0.60596,-0.42634c0.20618,-0.13769 0.41515,-0.26978 0.62692,-0.39698c0.21177,-0.1272 0.42703,-0.24881 0.64509,-0.36553c0.21806,-0.11672 0.43822,-0.22784 0.66187,-0.33338c0.22295,-0.10554 0.4487,-0.20548 0.67654,-0.29983c0.22924,-0.09505 0.45918,-0.18381 0.68913,-0.26559c0.23623,-0.08457 0.47246,-0.16285 0.70869,-0.23483c0.23693,-0.07199 0.47596,-0.13769 0.71568,-0.19849c0.23693,-0.05871 0.47736,-0.11252 0.72128,-0.16075c0.24392,-0.04892 0.48714,-0.09156 0.72896,-0.1272c0.24462,-0.03634 0.48994,-0.0664 0.73595,-0.09016c0.24811,-0.02516 0.49483,-0.04333 0.74015,-0.05521c0.24741,-0.01188 0.49483,-0.01817 0.74224,-0.01817h64.95461c0.24741,0 0.49483,0.00629 0.74224,0.01817c0.24532,0.01188 0.48994,0.03005 0.73455,0.05451c0.24951,0.02446 0.49693,0.05451 0.74154,0.09086c0.24182,0.03564 0.48365,0.07758 0.72337,0.1258c0.24741,0.04962 0.49133,0.10414 0.73246,0.16424c0.23623,0.05941 0.47316,0.12441 0.71009,0.19639c0.23623,0.07199 0.47107,0.14957 0.7038,0.23274c0.23344,0.08317 0.46268,0.17193 0.68843,0.26559c0.23204,0.09575 0.45918,0.19639 0.68284,0.30263c0.22295,0.10484 0.44381,0.21596 0.66187,0.33268c0.21736,0.11672 0.43263,0.23833 0.64579,0.36623c0.21107,0.1265 0.41865,0.2579 0.62273,0.39419c0.20828,0.13908 0.41166,0.28236 0.61015,0.42913c0.19709,0.14677 0.39209,0.29913 0.58429,0.45639c0.1901,0.15656 0.37741,0.318 0.56262,0.48504c0.18102,0.16494 0.36134,0.33618 0.53746,0.5116c0.1724,0.17286 0.3413,0.35085 0.50671,0.53397c0.16704,0.18381 0.32849,0.37112 0.48434,0.56053c0.15865,0.1936 0.31171,0.38929 0.45849,0.58708c0.14607,0.19779 0.28865,0.40048 0.42773,0.60805c0.13559,0.20408 0.26838,0.41306 0.39698,0.62692c0.1258,0.21037 0.24741,0.42494 0.36483,0.6444c0.11532,0.21526 0.22505,0.43542 0.33128,0.65907c0.10693,0.22505 0.20758,0.4508 0.30123,0.67794c0.09435,0.22854 0.18381,0.45988 0.26768,0.69402c0.08247,0.23064 0.15935,0.46268 0.22994,0.69751c0.07339,0.24043 0.13978,0.48155 0.19989,0.72128c0.06011,0.23903 0.11392,0.47945 0.16215,0.72128c0.04822,0.24182 0.09016,0.48504 0.1265,0.72896c0.03634,0.24672 0.0671,0.49203 0.09156,0.73595c0.02306,0.24602 0.04124,0.49273 0.05382,0.74015c0.01258,0.24951 0.01817,0.49693 0.01817,0.74224v14.4947c0,0.67724 -0.04473,1.35169 -0.13559,2.02265c-0.09016,0.67165 -0.22645,1.33352 -0.40607,1.987c-0.17962,0.65348 -0.40187,1.29159 -0.66816,1.91431c-0.26559,0.62273 -0.57101,1.22519 -0.91837,1.80738c-0.09296,0.15586 -0.17193,0.3187 -0.23833,0.48854c-0.065,0.16914 -0.11602,0.34247 -0.15236,0.52069c-0.03634,0.17822 -0.05871,0.35784 -0.0643,0.53956c-0.00699,0.18102 0.0014,0.36204 0.02586,0.54235c0.08876,0.66396 0.13279,1.33142 0.13279,2.00098v14.4947c0,0.24811 -0.00559,0.49553 -0.01747,0.74294c-0.01258,0.24672 -0.03075,0.49343 -0.05451,0.74015c-0.02446,0.24392 -0.05451,0.48854 -0.09086,0.73525c-0.03634,0.24462 -0.07828,0.48714 -0.1265,0.72966c-0.04822,0.24182 -0.10204,0.48155 -0.16215,0.72058c-0.06011,0.24043 -0.1265,0.47875 -0.19849,0.71638c-0.07199,0.23763 -0.15027,0.47386 -0.23413,0.70869c-0.08177,0.22994 -0.17053,0.45918 -0.26489,0.68843c-0.09435,0.22645 -0.195,0.45219 -0.30123,0.67724c-0.10554,0.22435 -0.21736,0.4459 -0.33338,0.66466c-0.11602,0.21596 -0.23763,0.43053 -0.36483,0.6437c-0.1279,0.21107 -0.25999,0.42004 -0.39768,0.62692c-0.13699,0.20478 -0.27956,0.40746 -0.42843,0.60735c-0.14537,0.19569 -0.29634,0.38929 -0.45219,0.5801c-0.15795,0.1915 -0.3194,0.37881 -0.48365,0.56053c-0.16704,0.18451 -0.33757,0.36343 -0.5116,0.53676c-0.17682,0.17682 -0.35644,0.34876 -0.53956,0.5144c-0.18242,0.16564 -0.36972,0.32709 -0.56192,0.48504c-0.1901,0.15586 -0.3844,0.30752 -0.58359,0.45499c-0.19849,0.14677 -0.40048,0.28935 -0.60596,0.42634c-0.20548,0.13769 -0.41445,0.26978 -0.62622,0.39698c-0.21177,0.1272 -0.42703,0.24881 -0.64509,0.36553c-0.21806,0.11672 -0.43892,0.22715 -0.66257,0.33338c-0.22295,0.10554 -0.4487,0.20548 -0.67724,0.29983c-0.22854,0.09505 -0.45918,0.18381 -0.69192,0.26698c-0.23274,0.08387 -0.46757,0.16145 -0.7038,0.23274c-0.23693,0.07199 -0.47456,0.13769 -0.71429,0.19779c-0.24043,0.06011 -0.48155,0.11392 -0.72407,0.16215c-0.24252,0.04822 -0.48574,0.09086 -0.73036,0.1272c-0.24462,0.03634 -0.48994,0.0664 -0.73595,0.09086c-0.24602,0.02376 -0.49273,0.04193 -0.73945,0.05451c-0.24672,0.01188 -0.49413,0.01817 -0.74084,0.01817z" fill="#ff9000" id="path-id-6775" data-original-fill="#ff9000"></path><path d="M260.86597,191.47028v-11.82346h46.60123v-14.4947h-64.95461v67.9725h18.35338v-27.15965h44.17741v-14.4947z" fill="#79863c" id="path-id-75672" data-original-fill="#79863c"></path></g></g><g data-paper-data="{&quot;isContainerElementsWrapper&quot;:true}" fill-rule="evenodd"><path d="M386.64889,180.53453c-0.4281,0.00367 -0.84653,0.04754 -1.2553,0.13162v0c-1.59739,0.32963 -3.17063,0.49444 -4.7197,0.49444c-6.20307,0 -11.59198,-2.28747 -16.16673,-6.86242c-4.56026,-4.56045 -6.84715,-9.92945 -6.86068,-16.10701v-0.01015l0.4885,-19.81073c0.01739,-0.7068 -0.08021,-1.39881 -0.29281,-2.07603c-0.17781,-0.59692 -0.45805,-1.17321 -0.84073,-1.72887c-0.40974,-0.58513 -0.88615,-1.08218 -1.42925,-1.49114c-0.55566,-0.41515 -1.15722,-0.73211 -1.80468,-0.9509l-76.09234,-25.77352c-1.39533,-0.47283 -2.78882,-0.46635 -4.18048,0.01944l-77.32314,27.0017c-0.62891,0.21985 -1.2093,0.52952 -1.74119,0.92901c-0.5342,0.40239 -0.99347,0.87369 -1.37779,1.41388c-0.38741,0.54677 -0.68215,1.13605 -0.88422,1.76786c-0.20352,0.63915 -0.30527,1.29164 -0.30527,1.95746v18.41018c0,6.22993 -2.31704,11.59763 -6.95113,16.10309c-4.74928,4.61717 -10.51764,6.92576 -17.3051,6.92576c-0.9786,0 -2.10207,-0.09224 -3.37039,-0.27672c-0.72337,-0.10446 -1.44178,-0.08721 -2.15523,0.05175c-0.84079,0.16525 -1.61548,0.48299 -2.32407,0.95322c-0.71054,0.47168 -1.30361,1.06111 -1.77922,1.76829c-0.47582,0.70728 -0.79814,1.47872 -0.96697,2.31434c-0.16877,0.83571 -0.17126,1.67171 -0.00749,2.508l6.86854,35.07729l10.31305,53.28642c4.98052,24.34939 23.08532,46.21571 54.31442,65.59897c15.24878,9.4655 30.06246,16.62961 44.44103,21.49234c1.37156,0.46385 2.74316,0.46385 4.11481,0c14.49203,-4.85789 29.39509,-12.02056 44.7092,-21.48799c31.38739,-19.39969 49.40566,-41.27954 54.05482,-65.63955l9.87572,-51.13371l7.29989,-37.19435c0.16621,-0.84325 0.16331,-1.68495 -0.0087,-2.5251c-0.08794,-0.41718 -0.21018,-0.81276 -0.36673,-1.18674c-0.00966,-0.02426 -0.02174,-0.05291 -0.03624,-0.08596c-0.15655,-0.3532 -0.33581,-0.68264 -0.53778,-0.9883c-0.26768,-0.39176 -0.54696,-0.73163 -0.83783,-1.01961c-0.29861,-0.29493 -0.62475,-0.55943 -0.97844,-0.79348c-0.36335,-0.23859 -0.74361,-0.43781 -1.14079,-0.59765c-0.38075,-0.15471 -0.7784,-0.2716 -1.19297,-0.35064c-0.40684,-0.07876 -0.82237,-0.11693 -1.24661,-0.11451zM385.71248,182.21049v0c0.30827,-0.06339 0.6233,-0.09644 0.9451,-0.09915c0.31987,-0.00184 0.63393,0.02706 0.9422,0.08668c0.31213,0.05953 0.61219,0.1478 0.90016,0.26483c0.30054,0.12041 0.58706,0.27063 0.85958,0.45066c0.26768,0.17655 0.51362,0.37591 0.73782,0.59808c0.21936,0.21714 0.43003,0.47323 0.632,0.76826c0.15365,0.23241 0.29039,0.48347 0.41022,0.75318c0.00676,0.01556 0.01498,0.03542 0.02464,0.05958c0.1179,0.28295 0.21018,0.58122 0.27686,0.8948c0.12949,0.63335 0.13143,1.26854 0.0058,1.90557l-7.29989,37.19898l-9.87572,51.1369c-4.56315,23.90486 -22.34177,45.43585 -53.33585,64.59299c-15.20819,9.40269 -30.00322,16.5151 -44.38508,21.33724c-1.03497,0.34982 -2.0699,0.34982 -3.10477,0c-14.26551,-4.82504 -28.97038,-11.93793 -44.1146,-21.33869c-30.84439,-19.14553 -48.71033,-40.66493 -53.59783,-64.5582l-10.31371,-53.29077l-6.86855,-35.07729c-0.12359,-0.63123 -0.12171,-1.26216 0.00564,-1.89281c0.12741,-0.63055 0.37068,-1.21278 0.7298,-1.7467c0.35894,-0.53362 0.80651,-0.97839 1.34271,-1.3343c0.53476,-0.35485 1.11934,-0.5946 1.75374,-0.71926c0.53858,-0.10495 1.08082,-0.11804 1.62672,-0.03928c1.3435,0.19549 2.54263,0.29324 3.59738,0.29324c7.2142,0 13.34891,-2.45731 18.40414,-7.37193c4.9526,-4.81508 7.4289,-10.55966 7.4289,-17.23373v-18.41018c0,-0.50251 0.07673,-0.99487 0.23019,-1.47708c0.15259,-0.477 0.37504,-0.92171 0.66737,-1.33416c0.29,-0.4078 0.63659,-0.76352 1.03976,-1.06715c0.40152,-0.3015 0.83957,-0.53522 1.31415,-0.70114l77.32314,-27.0017c1.05014,-0.36662 2.10174,-0.37151 3.15478,-0.01468l76.09379,25.77398c0.48898,0.16525 0.94268,0.40404 1.36112,0.71636c0.40974,0.30885 0.76922,0.68404 1.07846,1.12557c0.28798,0.41911 0.49961,0.85489 0.6349,1.30734c0.16042,0.51082 0.23386,1.03246 0.22033,1.56492l-0.4885,19.8316v0.02087c0.01256,6.61638 2.45311,12.35946 7.32163,17.22924c4.88399,4.88283 10.64494,7.32424 17.28287,7.32424c1.65538,0 3.33491,-0.17564 5.0386,-0.52691z" data-paper-data="{&quot;isOuterDoubleOutline&quot;:true}" fill="#79863c" id="path-id-80273" data-original-fill="#79863c"></path><path d="M380.67388,185.52298c-7.40715,0 -13.82427,-2.71335 -19.25135,-8.14004c-5.42225,-5.42254 -8.13531,-11.83405 -8.13917,-19.23454v-0.00826l0.48994,-19.87741c0.0058,-0.22526 -0.02513,-0.44554 -0.09277,-0.66085c-0.05895,-0.19723 -0.14979,-0.385 -0.27251,-0.56329c-0.13143,-0.18757 -0.28459,-0.34717 -0.4595,-0.47878c-0.17684,-0.1321 -0.36963,-0.23347 -0.57837,-0.30411l-76.09451,-25.77402c-0.44829,-0.15191 -0.89601,-0.14982 -1.34314,0.00627l-77.32271,27.0016c-0.20216,0.07064 -0.38867,0.17013 -0.55952,0.29846c-0.17163,0.1293 -0.31924,0.28082 -0.44283,0.45458c-0.12437,0.17549 -0.21907,0.3649 -0.28411,0.56822c-0.06523,0.20487 -0.09784,0.41433 -0.09784,0.62838v18.41018c0,7.45866 -2.75756,13.86896 -8.27267,19.23091c-5.59581,5.44022 -12.37779,8.16033 -20.34594,8.16033c-1.18909,0 -2.5219,-0.10741 -3.99845,-0.32223c-0.23229,-0.03353 -0.46323,-0.02793 -0.69283,0.01681c-0.26987,0.05305 -0.5187,0.15515 -0.74649,0.30629c-0.22811,0.15143 -0.41857,0.34074 -0.57139,0.56793c-0.15289,0.22729 -0.25646,0.47516 -0.3107,0.74361c-0.05422,0.26845 -0.05501,0.53705 -0.00239,0.8058l6.86854,35.07729l10.31487,53.29555c4.72328,23.09118 22.1673,43.99839 52.33204,62.72163c14.96438,9.28866 29.47704,16.31072 43.53797,21.06618c0.44027,0.14882 0.88079,0.14882 1.32155,0c14.18066,-4.75449 28.78459,-11.77655 43.81179,-21.06618c30.2983,-18.7271 47.65269,-39.64252 52.06315,-62.74627l9.87717,-51.14328l7.30279,-37.20739c0.05315,-0.27116 0.05218,-0.54131 -0.0029,-0.81044c-0.02802,-0.13258 -0.06765,-0.26039 -0.11886,-0.3834c-0.05702,-0.12882 -0.11935,-0.24439 -0.18699,-0.34673c-0.08407,-0.12263 -0.17298,-0.23028 -0.26672,-0.32296c-0.09567,-0.09499 -0.20004,-0.17979 -0.3131,-0.25439c-0.11596,-0.07625 -0.23772,-0.14003 -0.36528,-0.19134c-0.12369,-0.05015 -0.25174,-0.08789 -0.38413,-0.11321c-0.13143,-0.02542 -0.26575,-0.03774 -0.40297,-0.03696c-0.13626,0.00116 -0.27058,0.01532 -0.40297,0.04247c-1.88537,0.38906 -3.75093,0.58359 -5.59668,0.58359zM350.60171,158.14072c0.00193,8.144 2.97687,15.18988 8.92482,21.13764c5.95085,5.95007 12.99996,8.92511 21.14735,8.92511c1.73172,0 3.47648,-0.15525 5.23429,-0.46574l-7.12884,36.31781l-9.87717,51.14994c-4.26358,22.33162 -21.21016,42.65467 -50.83974,60.96913c-14.78019,9.13597 -29.13451,16.04883 -43.06296,20.73858c-13.80446,-4.68878 -28.06639,-11.60164 -42.7858,-20.73858c-29.51072,-18.31736 -46.54867,-38.63509 -51.11385,-60.95319l-10.31609,-53.30048l-6.70355,-34.23467c1.27148,0.15655 2.44704,0.23483 3.52669,0.23483c8.6937,0 16.0985,-2.97301 22.2144,-8.91902c6.05647,-5.88823 9.08471,-12.93913 9.08471,-21.15271v-17.97329l76.71028,-26.78763l75.46672,25.56132l-0.4798,19.44878c-0.00097,0.01102 -0.00145,0.02203 -0.00145,0.03305z" data-paper-data="{&quot;isBaseLogoContainer&quot;:true}" fill="#ff9000" id="path-id-52485" data-original-fill="#ff9000"></path></g></g></g><rect data-path-id="path-id-80273" class="invisible-bbox" x="157" y="106" fill="transparent" width="236" height="258"></rect><rect data-path-id="path-id-52485" class="invisible-bbox" x="161" y="110" fill="transparent" width="228" height="249"></rect><rect data-path-id="path-id-6775" class="invisible-bbox" x="221" y="144" fill="transparent" width="108" height="111"></rect><rect data-path-id="path-id-75672" class="invisible-bbox" x="243" y="165" fill="transparent" width="65" height="68"></rect><rect data-path-id="path-id-17255" class="invisible-bbox" x="240" y="265" fill="transparent" width="23" height="25"></rect><rect data-path-id="path-id-81371" class="invisible-bbox" x="288" y="265" fill="transparent" width="21" height="25"></rect><rect data-path-id="path-id-84101" class="invisible-bbox" x="265" y="265" fill="transparent" width="19" height="25"></rect><rect data-path-id="path-id-71916" class="invisible-bbox" x="221" y="265" fill="transparent" width="18" height="25"></rect><rect data-path-id="path-id-149" class="invisible-bbox" x="314" y="265" fill="transparent" width="15" height="25"></rect><rect data-path-id="path-id-6431" class="invisible-bbox" x="235" y="295" fill="transparent" width="15" height="16"></rect><rect data-path-id="path-id-23926" class="invisible-bbox" x="299" y="295" fill="transparent" width="15" height="16"></rect><rect data-path-id="path-id-68320" class="invisible-bbox" x="268" y="295" fill="transparent" width="13" height="16"></rect><rect data-path-id="path-id-37098" class="invisible-bbox" x="284" y="295" fill="transparent" width="13" height="16"></rect><rect data-path-id="path-id-38179" class="invisible-bbox" x="316" y="295" fill="transparent" width="13" height="16"></rect><rect data-path-id="path-id-76074" class="invisible-bbox" x="221" y="295" fill="transparent" width="12" height="16"></rect><rect data-path-id="path-id-23423" class="invisible-bbox" x="253" y="295" fill="transparent" width="12" height="16"></rect></svg>